<mxfile host="65bd71144e">
    <diagram id="Q6zRdapSOg1j7NtgGEZH" name="Seite-1">
        <mxGraphModel dx="2062" dy="1926" grid="1" gridSize="10" guides="1" tooltips="1" connect="1" arrows="1" fold="1" page="1" pageScale="1" pageWidth="827" pageHeight="1169" math="0" shadow="0">
            <root>
                <mxCell id="0"/>
                <mxCell id="1" parent="0"/>
                <mxCell id="jC2d6KhwjWWk40cOjQq3-38" value="&lt;font style=&quot;font-size: 33px;&quot;&gt;Holder&lt;/font&gt;" style="rounded=0;whiteSpace=wrap;html=1;fontSize=20;strokeWidth=3;fillColor=#dae8fc;strokeColor=#6c8ebf;align=left;verticalAlign=top;" parent="1" vertex="1">
                    <mxGeometry x="-520" y="-1010" width="290" height="770" as="geometry"/>
                </mxCell>
                <mxCell id="jC2d6KhwjWWk40cOjQq3-37" value="&lt;font style=&quot;font-size: 33px;&quot;&gt;Issuer&lt;/font&gt;" style="rounded=0;whiteSpace=wrap;html=1;fontSize=20;strokeWidth=3;fillColor=#fff2cc;strokeColor=#d6b656;align=right;verticalAlign=top;" parent="1" vertex="1">
                    <mxGeometry x="-230" y="-1010" width="710" height="312" as="geometry"/>
                </mxCell>
                <mxCell id="5c4Ob_BE5MfwwZ4g9xx3-62" value="&lt;font style=&quot;font-size: 33px&quot;&gt;&lt;br&gt;&lt;br&gt;VDR&lt;/font&gt;" style="rounded=0;whiteSpace=wrap;html=1;fontSize=20;strokeWidth=3;fillColor=#d5e8d4;strokeColor=#82b366;align=right;verticalAlign=bottom;" parent="1" vertex="1">
                    <mxGeometry x="-230" y="-698" width="710" height="458" as="geometry"/>
                </mxCell>
                <mxCell id="5c4Ob_BE5MfwwZ4g9xx3-1" value="SCHEMA" style="swimlane;fontStyle=1;childLayout=stackLayout;horizontal=1;startSize=26;fillColor=#FFFFFF;horizontalStack=0;resizeParent=1;resizeParentMax=0;resizeLast=0;collapsible=1;marginBottom=0;labelBackgroundColor=#FFFFFF;" parent="1" vertex="1">
                    <mxGeometry x="-90" y="-395" width="170" height="122" as="geometry">
                        <mxRectangle x="-50" y="190" width="80" height="30" as="alternateBounds"/>
                    </mxGeometry>
                </mxCell>
                <mxCell id="5c4Ob_BE5MfwwZ4g9xx3-2" value="+ schema_id: string" style="text;strokeColor=none;fillColor=#FFFFFF;align=left;verticalAlign=top;spacingLeft=4;spacingRight=4;overflow=hidden;rotatable=0;points=[[0,0.5],[1,0.5]];portConstraint=eastwest;labelBackgroundColor=#FFFFFF;" parent="5c4Ob_BE5MfwwZ4g9xx3-1" vertex="1">
                    <mxGeometry y="26" width="170" height="26" as="geometry"/>
                </mxCell>
                <mxCell id="5c4Ob_BE5MfwwZ4g9xx3-3" value="+ name: string" style="text;strokeColor=none;fillColor=#FFFFFF;align=left;verticalAlign=top;spacingLeft=4;spacingRight=4;overflow=hidden;rotatable=0;points=[[0,0.5],[1,0.5]];portConstraint=eastwest;labelBackgroundColor=#FFFFFF;" parent="5c4Ob_BE5MfwwZ4g9xx3-1" vertex="1">
                    <mxGeometry y="52" width="170" height="26" as="geometry"/>
                </mxCell>
                <mxCell id="5c4Ob_BE5MfwwZ4g9xx3-27" value="+ version: string" style="text;strokeColor=none;fillColor=#FFFFFF;align=left;verticalAlign=top;spacingLeft=4;spacingRight=4;overflow=hidden;rotatable=0;points=[[0,0.5],[1,0.5]];portConstraint=eastwest;labelBackgroundColor=#FFFFFF;" parent="5c4Ob_BE5MfwwZ4g9xx3-1" vertex="1">
                    <mxGeometry y="78" width="170" height="22" as="geometry"/>
                </mxCell>
                <mxCell id="5c4Ob_BE5MfwwZ4g9xx3-4" value="+ attrNames: array&lt;string&gt;" style="text;strokeColor=none;fillColor=#FFFFFF;align=left;verticalAlign=top;spacingLeft=4;spacingRight=4;overflow=hidden;rotatable=0;points=[[0,0.5],[1,0.5]];portConstraint=eastwest;labelBackgroundColor=#FFFFFF;" parent="5c4Ob_BE5MfwwZ4g9xx3-1" vertex="1">
                    <mxGeometry y="100" width="170" height="22" as="geometry"/>
                </mxCell>
                <mxCell id="5c4Ob_BE5MfwwZ4g9xx3-5" value="PRIVATE_CRED_DEF" style="swimlane;fontStyle=1;childLayout=stackLayout;horizontal=1;startSize=26;fillColor=#FFFFFF;horizontalStack=0;resizeParent=1;resizeParentMax=0;resizeLast=0;collapsible=1;marginBottom=0;labelBackgroundColor=#FFFFFF;" parent="1" vertex="1">
                    <mxGeometry x="-120" y="-860" width="230" height="104" as="geometry"/>
                </mxCell>
                <mxCell id="5c4Ob_BE5MfwwZ4g9xx3-6" value="- public_cred_def_id: string" style="text;strokeColor=none;fillColor=#FFFFFF;align=left;verticalAlign=top;spacingLeft=4;spacingRight=4;overflow=hidden;rotatable=0;points=[[0,0.5],[1,0.5]];portConstraint=eastwest;labelBackgroundColor=#FFFFFF;" parent="5c4Ob_BE5MfwwZ4g9xx3-5" vertex="1">
                    <mxGeometry y="26" width="230" height="26" as="geometry"/>
                </mxCell>
                <mxCell id="5c4Ob_BE5MfwwZ4g9xx3-7" value="- schema_id: string" style="text;strokeColor=none;fillColor=#FFFFFF;align=left;verticalAlign=top;spacingLeft=4;spacingRight=4;overflow=hidden;rotatable=0;points=[[0,0.5],[1,0.5]];portConstraint=eastwest;labelBackgroundColor=#FFFFFF;" parent="5c4Ob_BE5MfwwZ4g9xx3-5" vertex="1">
                    <mxGeometry y="52" width="230" height="26" as="geometry"/>
                </mxCell>
                <mxCell id="jC2d6KhwjWWk40cOjQq3-2" value="- attrib_signature_keys: array&lt;BigInt&gt;" style="text;strokeColor=none;fillColor=#FFFFFF;align=left;verticalAlign=top;spacingLeft=4;spacingRight=4;overflow=hidden;rotatable=0;points=[[0,0.5],[1,0.5]];portConstraint=eastwest;labelBackgroundColor=#FFFFFF;" parent="5c4Ob_BE5MfwwZ4g9xx3-5" vertex="1">
                    <mxGeometry y="78" width="230" height="26" as="geometry"/>
                </mxCell>
                <mxCell id="5c4Ob_BE5MfwwZ4g9xx3-9" value="Revocation Registry" style="swimlane;fontStyle=1;childLayout=stackLayout;horizontal=1;startSize=26;fillColor=#FFFFFF;horizontalStack=0;resizeParent=1;resizeParentMax=0;resizeLast=0;collapsible=1;marginBottom=0;labelBackgroundColor=#FFFFFF;" parent="1" vertex="1">
                    <mxGeometry x="220" y="-644" width="170" height="130" as="geometry"/>
                </mxCell>
                <mxCell id="5c4Ob_BE5MfwwZ4g9xx3-10" value="+ rev_reg_id: string" style="text;strokeColor=none;fillColor=#FFFFFF;align=left;verticalAlign=top;spacingLeft=4;spacingRight=4;overflow=hidden;rotatable=0;points=[[0,0.5],[1,0.5]];portConstraint=eastwest;labelBackgroundColor=#FFFFFF;" parent="5c4Ob_BE5MfwwZ4g9xx3-9" vertex="1">
                    <mxGeometry y="26" width="170" height="26" as="geometry"/>
                </mxCell>
                <mxCell id="5c4Ob_BE5MfwwZ4g9xx3-11" value="+ tag: string" style="text;strokeColor=none;fillColor=#FFFFFF;align=left;verticalAlign=top;spacingLeft=4;spacingRight=4;overflow=hidden;rotatable=0;points=[[0,0.5],[1,0.5]];portConstraint=eastwest;labelBackgroundColor=#FFFFFF;" parent="5c4Ob_BE5MfwwZ4g9xx3-9" vertex="1">
                    <mxGeometry y="52" width="170" height="26" as="geometry"/>
                </mxCell>
                <mxCell id="5c4Ob_BE5MfwwZ4g9xx3-32" value="+ revocDefType: string" style="text;strokeColor=none;fillColor=#FFFFFF;align=left;verticalAlign=top;spacingLeft=4;spacingRight=4;overflow=hidden;rotatable=0;points=[[0,0.5],[1,0.5]];portConstraint=eastwest;labelBackgroundColor=#FFFFFF;" parent="5c4Ob_BE5MfwwZ4g9xx3-9" vertex="1">
                    <mxGeometry y="78" width="170" height="26" as="geometry"/>
                </mxCell>
                <mxCell id="5c4Ob_BE5MfwwZ4g9xx3-12" value="+ revocation_meta: complex" style="text;strokeColor=none;fillColor=#FFFFFF;align=left;verticalAlign=top;spacingLeft=4;spacingRight=4;overflow=hidden;rotatable=0;points=[[0,0.5],[1,0.5]];portConstraint=eastwest;labelBackgroundColor=#FFFFFF;" parent="5c4Ob_BE5MfwwZ4g9xx3-9" vertex="1">
                    <mxGeometry y="104" width="170" height="26" as="geometry"/>
                </mxCell>
                <mxCell id="5c4Ob_BE5MfwwZ4g9xx3-39" value="" style="edgeStyle=orthogonalEdgeStyle;rounded=0;orthogonalLoop=1;jettySize=auto;html=1;startArrow=none;startFill=0;endArrow=none;endFill=0;fontSize=20;labelBackgroundColor=#FFFFFF;" parent="1" source="5c4Ob_BE5MfwwZ4g9xx3-13" target="5c4Ob_BE5MfwwZ4g9xx3-9" edge="1">
                    <mxGeometry x="-0.7561" y="25" relative="1" as="geometry">
                        <mxPoint as="offset"/>
                    </mxGeometry>
                </mxCell>
                <mxCell id="5c4Ob_BE5MfwwZ4g9xx3-13" value="Revocation Registry Entry" style="swimlane;fontStyle=1;childLayout=stackLayout;horizontal=1;startSize=26;fillColor=#FFFFFF;horizontalStack=0;resizeParent=1;resizeParentMax=0;resizeLast=0;collapsible=1;marginBottom=0;labelBackgroundColor=#FFFFFF;" parent="1" vertex="1">
                    <mxGeometry x="210" y="-350" width="190" height="78" as="geometry"/>
                </mxCell>
                <mxCell id="5c4Ob_BE5MfwwZ4g9xx3-14" value="+ rev_reg_entry_id: string" style="text;strokeColor=none;fillColor=#FFFFFF;align=left;verticalAlign=top;spacingLeft=4;spacingRight=4;overflow=hidden;rotatable=0;points=[[0,0.5],[1,0.5]];portConstraint=eastwest;labelBackgroundColor=#FFFFFF;" parent="5c4Ob_BE5MfwwZ4g9xx3-13" vertex="1">
                    <mxGeometry y="26" width="190" height="26" as="geometry"/>
                </mxCell>
                <mxCell id="5c4Ob_BE5MfwwZ4g9xx3-15" value="+ value: complex" style="text;strokeColor=none;fillColor=#FFFFFF;align=left;verticalAlign=top;spacingLeft=4;spacingRight=4;overflow=hidden;rotatable=0;points=[[0,0.5],[1,0.5]];portConstraint=eastwest;labelBackgroundColor=#FFFFFF;" parent="5c4Ob_BE5MfwwZ4g9xx3-13" vertex="1">
                    <mxGeometry y="52" width="190" height="26" as="geometry"/>
                </mxCell>
                <mxCell id="5c4Ob_BE5MfwwZ4g9xx3-24" value="" style="edgeStyle=orthogonalEdgeStyle;rounded=0;orthogonalLoop=1;jettySize=auto;html=1;startArrow=none;startFill=0;fontSize=20;labelBackgroundColor=#FFFFFF;endArrow=none;endFill=0;" parent="1" source="5c4Ob_BE5MfwwZ4g9xx3-20" target="5c4Ob_BE5MfwwZ4g9xx3-5" edge="1">
                    <mxGeometry x="0.0698" y="20" relative="1" as="geometry">
                        <mxPoint as="offset"/>
                    </mxGeometry>
                </mxCell>
                <mxCell id="5c4Ob_BE5MfwwZ4g9xx3-20" value="PUBLIC_CRED_DEF" style="swimlane;fontStyle=1;childLayout=stackLayout;horizontal=1;startSize=26;fillColor=#FFFFFF;horizontalStack=0;resizeParent=1;resizeParentMax=0;resizeLast=0;collapsible=1;marginBottom=0;labelBackgroundColor=#FFFFFF;" parent="1" vertex="1">
                    <mxGeometry x="-120" y="-670" width="230" height="182" as="geometry"/>
                </mxCell>
                <mxCell id="5c4Ob_BE5MfwwZ4g9xx3-21" value="+ public_cred_def_id: string" style="text;strokeColor=none;fillColor=#FFFFFF;align=left;verticalAlign=top;spacingLeft=4;spacingRight=4;overflow=hidden;rotatable=0;points=[[0,0.5],[1,0.5]];portConstraint=eastwest;labelBackgroundColor=#FFFFFF;" parent="5c4Ob_BE5MfwwZ4g9xx3-20" vertex="1">
                    <mxGeometry y="26" width="230" height="26" as="geometry"/>
                </mxCell>
                <mxCell id="5c4Ob_BE5MfwwZ4g9xx3-29" value="+ tag: string" style="text;strokeColor=none;fillColor=#FFFFFF;align=left;verticalAlign=top;spacingLeft=4;spacingRight=4;overflow=hidden;rotatable=0;points=[[0,0.5],[1,0.5]];portConstraint=eastwest;labelBackgroundColor=#FFFFFF;" parent="5c4Ob_BE5MfwwZ4g9xx3-20" vertex="1">
                    <mxGeometry y="52" width="230" height="26" as="geometry"/>
                </mxCell>
                <mxCell id="5c4Ob_BE5MfwwZ4g9xx3-22" value="+ signature_type: string" style="text;strokeColor=none;fillColor=#FFFFFF;align=left;verticalAlign=top;spacingLeft=4;spacingRight=4;overflow=hidden;rotatable=0;points=[[0,0.5],[1,0.5]];portConstraint=eastwest;labelBackgroundColor=#FFFFFF;" parent="5c4Ob_BE5MfwwZ4g9xx3-20" vertex="1">
                    <mxGeometry y="78" width="230" height="26" as="geometry"/>
                </mxCell>
                <mxCell id="5c4Ob_BE5MfwwZ4g9xx3-30" value="+ schema_id: string" style="text;strokeColor=none;fillColor=#FFFFFF;align=left;verticalAlign=top;spacingLeft=4;spacingRight=4;overflow=hidden;rotatable=0;points=[[0,0.5],[1,0.5]];portConstraint=eastwest;labelBackgroundColor=#FFFFFF;" parent="5c4Ob_BE5MfwwZ4g9xx3-20" vertex="1">
                    <mxGeometry y="104" width="230" height="26" as="geometry"/>
                </mxCell>
                <mxCell id="5c4Ob_BE5MfwwZ4g9xx3-23" value="+ attrib_verification_keys: array&lt;BigInt&gt;" style="text;strokeColor=none;fillColor=#FFFFFF;align=left;verticalAlign=top;spacingLeft=4;spacingRight=4;overflow=hidden;rotatable=0;points=[[0,0.5],[1,0.5]];portConstraint=eastwest;labelBackgroundColor=#FFFFFF;" parent="5c4Ob_BE5MfwwZ4g9xx3-20" vertex="1">
                    <mxGeometry y="130" width="230" height="26" as="geometry"/>
                </mxCell>
                <mxCell id="5c4Ob_BE5MfwwZ4g9xx3-31" value="+ revocation_data: array&lt;String&gt;" style="text;strokeColor=none;fillColor=#FFFFFF;align=left;verticalAlign=top;spacingLeft=4;spacingRight=4;overflow=hidden;rotatable=0;points=[[0,0.5],[1,0.5]];portConstraint=eastwest;labelBackgroundColor=#FFFFFF;" parent="5c4Ob_BE5MfwwZ4g9xx3-20" vertex="1">
                    <mxGeometry y="156" width="230" height="26" as="geometry"/>
                </mxCell>
                <mxCell id="5c4Ob_BE5MfwwZ4g9xx3-36" style="edgeStyle=orthogonalEdgeStyle;rounded=0;orthogonalLoop=1;jettySize=auto;html=1;entryX=1;entryY=0.5;entryDx=0;entryDy=0;startArrow=none;startFill=0;endArrow=none;endFill=0;labelBackgroundColor=#FFFFFF;" parent="1" source="5c4Ob_BE5MfwwZ4g9xx3-11" target="5c4Ob_BE5MfwwZ4g9xx3-22" edge="1">
                    <mxGeometry relative="1" as="geometry"/>
                </mxCell>
                <mxCell id="5c4Ob_BE5MfwwZ4g9xx3-57" style="edgeStyle=orthogonalEdgeStyle;rounded=0;orthogonalLoop=1;jettySize=auto;html=1;fontSize=20;fontColor=#FFFFFF;startArrow=none;startFill=0;endArrow=none;endFill=0;exitX=0.75;exitY=0;exitDx=0;exitDy=0;entryX=0;entryY=0.5;entryDx=0;entryDy=0;" parent="1" source="5c4Ob_BE5MfwwZ4g9xx3-47" target="5c4Ob_BE5MfwwZ4g9xx3-5" edge="1">
                    <mxGeometry relative="1" as="geometry">
                        <Array as="points">
                            <mxPoint x="-362" y="-808"/>
                        </Array>
                        <mxPoint x="-150" y="-910" as="targetPoint"/>
                    </mxGeometry>
                </mxCell>
                <mxCell id="5c4Ob_BE5MfwwZ4g9xx3-59" style="edgeStyle=orthogonalEdgeStyle;rounded=0;orthogonalLoop=1;jettySize=auto;html=1;entryX=0;entryY=0.25;entryDx=0;entryDy=0;fontSize=20;fontColor=#000000;startArrow=none;startFill=0;endArrow=none;endFill=0;exitX=0.5;exitY=0;exitDx=0;exitDy=0;" parent="1" source="5c4Ob_BE5MfwwZ4g9xx3-47" target="5c4Ob_BE5MfwwZ4g9xx3-9" edge="1">
                    <mxGeometry relative="1" as="geometry">
                        <Array as="points">
                            <mxPoint x="-405" y="-704"/>
                            <mxPoint x="-405" y="-950"/>
                            <mxPoint x="140" y="-950"/>
                            <mxPoint x="140" y="-612"/>
                        </Array>
                    </mxGeometry>
                </mxCell>
                <mxCell id="jC2d6KhwjWWk40cOjQq3-42" style="edgeStyle=orthogonalEdgeStyle;rounded=0;orthogonalLoop=1;jettySize=auto;html=1;entryX=0.5;entryY=0;entryDx=0;entryDy=0;fontSize=15;fontColor=default;startArrow=none;startFill=0;endArrow=none;endFill=0;" parent="1" source="5c4Ob_BE5MfwwZ4g9xx3-47" target="5c4Ob_BE5MfwwZ4g9xx3-73" edge="1">
                    <mxGeometry relative="1" as="geometry"/>
                </mxCell>
                <mxCell id="5c4Ob_BE5MfwwZ4g9xx3-47" value="AnonCred Credential" style="swimlane;fontStyle=1;childLayout=stackLayout;horizontal=1;startSize=26;fillColor=default;horizontalStack=0;resizeParent=1;resizeParentMax=0;resizeLast=0;collapsible=1;marginBottom=0;" parent="1" vertex="1">
                    <mxGeometry x="-462" y="-704" width="170" height="160" as="geometry">
                        <mxRectangle x="-50" y="190" width="80" height="30" as="alternateBounds"/>
                    </mxGeometry>
                </mxCell>
                <mxCell id="5c4Ob_BE5MfwwZ4g9xx3-48" value="+ schema_id: string" style="text;strokeColor=none;fillColor=default;align=left;verticalAlign=top;spacingLeft=4;spacingRight=4;overflow=hidden;rotatable=0;points=[[0,0.5],[1,0.5]];portConstraint=eastwest;" parent="5c4Ob_BE5MfwwZ4g9xx3-47" vertex="1">
                    <mxGeometry y="26" width="170" height="26" as="geometry"/>
                </mxCell>
                <mxCell id="5c4Ob_BE5MfwwZ4g9xx3-49" value="+ name: string" style="text;strokeColor=none;fillColor=default;align=left;verticalAlign=top;spacingLeft=4;spacingRight=4;overflow=hidden;rotatable=0;points=[[0,0.5],[1,0.5]];portConstraint=eastwest;" parent="5c4Ob_BE5MfwwZ4g9xx3-47" vertex="1">
                    <mxGeometry y="52" width="170" height="26" as="geometry"/>
                </mxCell>
                <mxCell id="5c4Ob_BE5MfwwZ4g9xx3-50" value="+ version: string" style="text;strokeColor=none;fillColor=default;align=left;verticalAlign=top;spacingLeft=4;spacingRight=4;overflow=hidden;rotatable=0;points=[[0,0.5],[1,0.5]];portConstraint=eastwest;" parent="5c4Ob_BE5MfwwZ4g9xx3-47" vertex="1">
                    <mxGeometry y="78" width="170" height="22" as="geometry"/>
                </mxCell>
                <mxCell id="jC2d6KhwjWWk40cOjQq3-31" value="+ attrNames: array&lt;string&gt;" style="text;strokeColor=none;fillColor=default;align=left;verticalAlign=top;spacingLeft=4;spacingRight=4;overflow=hidden;rotatable=0;points=[[0,0.5],[1,0.5]];portConstraint=eastwest;" parent="5c4Ob_BE5MfwwZ4g9xx3-47" vertex="1">
                    <mxGeometry y="100" width="170" height="30" as="geometry"/>
                </mxCell>
                <mxCell id="5c4Ob_BE5MfwwZ4g9xx3-51" value="+ signature: bytes" style="text;strokeColor=none;fillColor=default;align=left;verticalAlign=top;spacingLeft=4;spacingRight=4;overflow=hidden;rotatable=0;points=[[0,0.5],[1,0.5]];portConstraint=eastwest;" parent="5c4Ob_BE5MfwwZ4g9xx3-47" vertex="1">
                    <mxGeometry y="130" width="170" height="30" as="geometry"/>
                </mxCell>
                <mxCell id="jC2d6KhwjWWk40cOjQq3-45" style="edgeStyle=orthogonalEdgeStyle;rounded=0;orthogonalLoop=1;jettySize=auto;html=1;entryX=0.5;entryY=0;entryDx=0;entryDy=0;fontSize=15;fontColor=default;startArrow=none;startFill=0;endArrow=none;endFill=0;" parent="1" source="5c4Ob_BE5MfwwZ4g9xx3-73" target="jC2d6KhwjWWk40cOjQq3-40" edge="1">
                    <mxGeometry relative="1" as="geometry"/>
                </mxCell>
                <mxCell id="5c4Ob_BE5MfwwZ4g9xx3-73" value="Blinded Linked Secret" style="swimlane;fontStyle=1;childLayout=stackLayout;horizontal=1;startSize=26;fillColor=default;horizontalStack=0;resizeParent=1;resizeParentMax=0;resizeLast=0;collapsible=1;marginBottom=0;" parent="1" vertex="1">
                    <mxGeometry x="-462" y="-459" width="170" height="52" as="geometry">
                        <mxRectangle x="-50" y="190" width="80" height="30" as="alternateBounds"/>
                    </mxGeometry>
                </mxCell>
                <mxCell id="5c4Ob_BE5MfwwZ4g9xx3-74" value="- blinded_link_secret: String" style="text;strokeColor=none;fillColor=default;align=left;verticalAlign=top;spacingLeft=4;spacingRight=4;overflow=hidden;rotatable=0;points=[[0,0.5],[1,0.5]];portConstraint=eastwest;" parent="5c4Ob_BE5MfwwZ4g9xx3-73" vertex="1">
                    <mxGeometry y="26" width="170" height="26" as="geometry"/>
                </mxCell>
                <mxCell id="jC2d6KhwjWWk40cOjQq3-12" value="" style="edgeStyle=orthogonalEdgeStyle;rounded=0;orthogonalLoop=1;jettySize=auto;html=1;startArrow=none;startFill=0;endArrow=none;endFill=0;fontSize=20;labelBackgroundColor=#FFFFFF;exitX=0.5;exitY=0;exitDx=0;exitDy=0;entryX=0.5;entryY=1;entryDx=0;entryDy=0;" parent="1" source="5c4Ob_BE5MfwwZ4g9xx3-1" target="5c4Ob_BE5MfwwZ4g9xx3-20" edge="1">
                    <mxGeometry x="0.6667" y="-29" relative="1" as="geometry">
                        <mxPoint as="offset"/>
                        <mxPoint x="-300" y="-584" as="sourcePoint"/>
                        <mxPoint x="-120" y="-584" as="targetPoint"/>
                    </mxGeometry>
                </mxCell>
                <mxCell id="jC2d6KhwjWWk40cOjQq3-13" value="&lt;font style=&quot;font-size: 15px;&quot;&gt;1 .. 1&lt;/font&gt;" style="rounded=0;whiteSpace=wrap;html=1;strokeColor=none;fillColor=none;" parent="1" vertex="1">
                    <mxGeometry y="-425" width="70" height="30" as="geometry"/>
                </mxCell>
                <mxCell id="jC2d6KhwjWWk40cOjQq3-14" value="&lt;font style=&quot;font-size: 15px;&quot;&gt;0 .. n&lt;/font&gt;" style="rounded=0;whiteSpace=wrap;html=1;strokeColor=none;fillColor=none;" parent="1" vertex="1">
                    <mxGeometry x="-70" y="-489" width="70" height="30" as="geometry"/>
                </mxCell>
                <mxCell id="jC2d6KhwjWWk40cOjQq3-15" value="&lt;font style=&quot;font-size: 15px;&quot;&gt;1 .. 1&lt;/font&gt;" style="rounded=0;whiteSpace=wrap;html=1;strokeColor=none;fillColor=none;" parent="1" vertex="1">
                    <mxGeometry x="100" y="-610" width="70" height="30" as="geometry"/>
                </mxCell>
                <mxCell id="jC2d6KhwjWWk40cOjQq3-16" value="&lt;font style=&quot;font-size: 15px;&quot;&gt;0 .. n&lt;/font&gt;" style="rounded=0;whiteSpace=wrap;html=1;strokeColor=none;fillColor=none;" parent="1" vertex="1">
                    <mxGeometry x="160" y="-580" width="70" height="30" as="geometry"/>
                </mxCell>
                <mxCell id="jC2d6KhwjWWk40cOjQq3-17" value="&lt;font style=&quot;font-size: 15px;&quot;&gt;0 .. n&lt;/font&gt;" style="rounded=0;whiteSpace=wrap;html=1;strokeColor=none;fillColor=none;" parent="1" vertex="1">
                    <mxGeometry x="310" y="-380" width="70" height="30" as="geometry"/>
                </mxCell>
                <mxCell id="jC2d6KhwjWWk40cOjQq3-18" value="&lt;font style=&quot;font-size: 15px;&quot;&gt;1 .. 1&lt;/font&gt;" style="rounded=0;whiteSpace=wrap;html=1;strokeColor=none;fillColor=none;" parent="1" vertex="1">
                    <mxGeometry x="230" y="-514" width="70" height="30" as="geometry"/>
                </mxCell>
                <mxCell id="jC2d6KhwjWWk40cOjQq3-19" value="&lt;font style=&quot;font-size: 15px;&quot;&gt;1 .. 1&lt;/font&gt;" style="rounded=0;whiteSpace=wrap;html=1;strokeColor=none;fillColor=none;" parent="1" vertex="1">
                    <mxGeometry x="-70" y="-756" width="70" height="30" as="geometry"/>
                </mxCell>
                <mxCell id="jC2d6KhwjWWk40cOjQq3-20" value="&lt;font style=&quot;font-size: 15px;&quot;&gt;1 .. 1&lt;/font&gt;" style="rounded=0;whiteSpace=wrap;html=1;strokeColor=none;fillColor=none;" parent="1" vertex="1">
                    <mxGeometry x="-10" y="-698" width="70" height="30" as="geometry"/>
                </mxCell>
                <mxCell id="jC2d6KhwjWWk40cOjQq3-27" value="" style="edgeStyle=orthogonalEdgeStyle;rounded=0;orthogonalLoop=1;jettySize=auto;html=1;startArrow=none;startFill=0;endArrow=none;endFill=0;fontSize=20;labelBackgroundColor=#FFFFFF;exitX=0.5;exitY=0;exitDx=0;exitDy=0;entryX=0.5;entryY=1;entryDx=0;entryDy=0;entryPerimeter=0;" parent="1" source="5c4Ob_BE5MfwwZ4g9xx3-9" target="jC2d6KhwjWWk40cOjQq3-24" edge="1">
                    <mxGeometry x="0.6667" y="-29" relative="1" as="geometry">
                        <mxPoint as="offset"/>
                        <mxPoint x="510" y="-740" as="sourcePoint"/>
                        <mxPoint x="690" y="-740" as="targetPoint"/>
                    </mxGeometry>
                </mxCell>
                <mxCell id="jC2d6KhwjWWk40cOjQq3-28" value="" style="group" parent="1" vertex="1" connectable="0">
                    <mxGeometry x="220" y="-960" width="245" height="200" as="geometry"/>
                </mxCell>
                <mxCell id="jC2d6KhwjWWk40cOjQq3-24" value="" style="whiteSpace=wrap;html=1;shape=mxgraph.basic.document;fontSize=15;fillColor=default;horizontal=1;" parent="jC2d6KhwjWWk40cOjQq3-28" vertex="1">
                    <mxGeometry width="170.43478260869566" height="200" as="geometry"/>
                </mxCell>
                <mxCell id="jC2d6KhwjWWk40cOjQq3-25" value="&lt;b&gt;Tails File&lt;/b&gt;" style="rounded=0;whiteSpace=wrap;html=1;fontSize=15;fillColor=none;fontColor=default;labelBackgroundColor=none;labelBorderColor=none;strokeColor=none;" parent="jC2d6KhwjWWk40cOjQq3-28" vertex="1">
                    <mxGeometry x="38.61413043478261" y="7.222222222222222" width="93.20652173913044" height="33.333333333333336" as="geometry"/>
                </mxCell>
                <mxCell id="jC2d6KhwjWWk40cOjQq3-26" value="+ values: list&lt;BigPrimeNRs&gt;" style="text;strokeColor=none;fillColor=none;align=left;verticalAlign=top;spacingLeft=4;spacingRight=4;overflow=hidden;rotatable=0;points=[[0,0.5],[1,0.5]];portConstraint=eastwest;labelBackgroundColor=#FFFFFF;" parent="jC2d6KhwjWWk40cOjQq3-28" vertex="1">
                    <mxGeometry y="55.55555555555556" width="245.00000000000003" height="28.88888888888889" as="geometry"/>
                </mxCell>
                <mxCell id="jC2d6KhwjWWk40cOjQq3-29" value="&lt;font style=&quot;font-size: 15px;&quot;&gt;0 .. 1&lt;/font&gt;" style="rounded=0;whiteSpace=wrap;html=1;strokeColor=none;fillColor=none;" parent="1" vertex="1">
                    <mxGeometry x="160" y="-644" width="70" height="30" as="geometry"/>
                </mxCell>
                <mxCell id="jC2d6KhwjWWk40cOjQq3-30" value="&lt;font style=&quot;font-size: 15px;&quot;&gt;1 .. 1&lt;/font&gt;" style="rounded=0;whiteSpace=wrap;html=1;strokeColor=none;fillColor=none;" parent="1" vertex="1">
                    <mxGeometry x="240" y="-756" width="70" height="30" as="geometry"/>
                </mxCell>
                <mxCell id="jC2d6KhwjWWk40cOjQq3-33" value="&lt;font style=&quot;font-size: 15px;&quot;&gt;1 .. 1&lt;/font&gt;" style="rounded=0;whiteSpace=wrap;html=1;strokeColor=none;fillColor=none;" parent="1" vertex="1">
                    <mxGeometry x="300" y="-680" width="70" height="30" as="geometry"/>
                </mxCell>
                <mxCell id="jC2d6KhwjWWk40cOjQq3-34" value="&lt;font style=&quot;font-size: 15px;&quot;&gt;0 .. n&lt;/font&gt;" style="rounded=0;whiteSpace=wrap;html=1;strokeColor=none;fillColor=none;" parent="1" vertex="1">
                    <mxGeometry x="-470" y="-734" width="70" height="30" as="geometry"/>
                </mxCell>
                <mxCell id="jC2d6KhwjWWk40cOjQq3-35" value="&lt;font style=&quot;font-size: 15px;&quot;&gt;1 .. 1&lt;/font&gt;" style="rounded=0;whiteSpace=wrap;html=1;strokeColor=none;fillColor=none;" parent="1" vertex="1">
                    <mxGeometry x="-190" y="-840" width="70" height="30" as="geometry"/>
                </mxCell>
                <mxCell id="jC2d6KhwjWWk40cOjQq3-36" value="&lt;font style=&quot;font-size: 15px;&quot;&gt;0 .. n&lt;/font&gt;" style="rounded=0;whiteSpace=wrap;html=1;strokeColor=none;fillColor=none;" parent="1" vertex="1">
                    <mxGeometry x="-362" y="-734" width="70" height="30" as="geometry"/>
                </mxCell>
                <mxCell id="jC2d6KhwjWWk40cOjQq3-40" value="Link Secret" style="swimlane;fontStyle=1;childLayout=stackLayout;horizontal=1;startSize=26;fillColor=default;horizontalStack=0;resizeParent=1;resizeParentMax=0;resizeLast=0;collapsible=1;marginBottom=0;" parent="1" vertex="1">
                    <mxGeometry x="-462" y="-324" width="170" height="52" as="geometry">
                        <mxRectangle x="-50" y="190" width="80" height="30" as="alternateBounds"/>
                    </mxGeometry>
                </mxCell>
                <mxCell id="jC2d6KhwjWWk40cOjQq3-41" value="- secret: String" style="text;strokeColor=none;fillColor=default;align=left;verticalAlign=top;spacingLeft=4;spacingRight=4;overflow=hidden;rotatable=0;points=[[0,0.5],[1,0.5]];portConstraint=eastwest;" parent="jC2d6KhwjWWk40cOjQq3-40" vertex="1">
                    <mxGeometry y="26" width="170" height="26" as="geometry"/>
                </mxCell>
                <mxCell id="jC2d6KhwjWWk40cOjQq3-43" value="&lt;font style=&quot;font-size: 15px;&quot;&gt;1 .. 1&lt;/font&gt;" style="rounded=0;whiteSpace=wrap;html=1;strokeColor=none;fillColor=none;" parent="1" vertex="1">
                    <mxGeometry x="-380" y="-488" width="70" height="30" as="geometry"/>
                </mxCell>
                <mxCell id="jC2d6KhwjWWk40cOjQq3-44" value="&lt;font style=&quot;font-size: 15px;&quot;&gt;1 .. 1&lt;/font&gt;" style="rounded=0;whiteSpace=wrap;html=1;strokeColor=none;fillColor=none;" parent="1" vertex="1">
                    <mxGeometry x="-440" y="-544" width="70" height="30" as="geometry"/>
                </mxCell>
                <mxCell id="jC2d6KhwjWWk40cOjQq3-46" value="&lt;font style=&quot;font-size: 15px;&quot;&gt;1 .. 1&lt;/font&gt;" style="rounded=0;whiteSpace=wrap;html=1;strokeColor=none;fillColor=none;" parent="1" vertex="1">
                    <mxGeometry x="-380" y="-354" width="70" height="30" as="geometry"/>
                </mxCell>
                <mxCell id="jC2d6KhwjWWk40cOjQq3-47" value="&lt;span style=&quot;font-size: 15px;&quot;&gt;0 .. n&lt;/span&gt;" style="rounded=0;whiteSpace=wrap;html=1;strokeColor=none;fillColor=none;" parent="1" vertex="1">
                    <mxGeometry x="-450" y="-407" width="70" height="30" as="geometry"/>
                </mxCell>
                <mxCell id="jC2d6KhwjWWk40cOjQq3-48" style="edgeStyle=orthogonalEdgeStyle;rounded=0;orthogonalLoop=1;jettySize=auto;html=1;fontSize=20;fontColor=#FFFFFF;startArrow=none;startFill=0;endArrow=none;endFill=0;exitX=1;exitY=0.5;exitDx=0;exitDy=0;" parent="1" edge="1">
                    <mxGeometry relative="1" as="geometry">
                        <Array as="points">
                            <mxPoint x="-120" y="-624"/>
                        </Array>
                        <mxPoint x="-292" y="-625.0000000000005" as="sourcePoint"/>
                        <mxPoint x="-120" y="-620" as="targetPoint"/>
                    </mxGeometry>
                </mxCell>
                <mxCell id="2" value="&lt;font color=&quot;#ff8000&quot; size=&quot;1&quot;&gt;&lt;b style=&quot;font-size: 14px&quot;&gt;Credential Definition&lt;/b&gt;&lt;/font&gt;" style="whiteSpace=wrap;html=1;dashed=1;strokeWidth=3;fillColor=none;strokeColor=#FF8000;align=center;verticalAlign=top;" parent="1" vertex="1">
                    <mxGeometry x="-197" y="-898" width="360" height="440" as="geometry"/>
                </mxCell>
                <mxCell id="jC2d6KhwjWWk40cOjQq3-49" value="&lt;font style=&quot;font-size: 15px;&quot;&gt;1 .. 1&lt;/font&gt;" style="rounded=0;whiteSpace=wrap;html=1;strokeColor=none;fillColor=none;" parent="1" vertex="1">
                    <mxGeometry x="-190" y="-650" width="70" height="30" as="geometry"/>
                </mxCell>
                <mxCell id="jC2d6KhwjWWk40cOjQq3-50" value="&lt;font style=&quot;font-size: 15px;&quot;&gt;0 .. n&lt;/font&gt;" style="rounded=0;whiteSpace=wrap;html=1;strokeColor=none;fillColor=none;" parent="1" vertex="1">
                    <mxGeometry x="-300" y="-620" width="70" height="30" as="geometry"/>
                </mxCell>
            </root>
        </mxGraphModel>
    </diagram>
</mxfile>